<svg width="23" height="22" viewBox="0 0 23 22" fill="none" xmlns="http://www.w3.org/2000/svg">
<path d="M9.11099 1.53136L2.74032 5.4621C0.697888 6.72234 0.697888 9.54283 2.74032 10.8031L9.11099 14.7338C10.2539 15.444 12.1376 15.444 13.2805 14.7338L19.6195 10.8031C21.6513 9.54283 21.6513 6.73234 19.6195 5.4721L13.2805 1.54136C12.1376 0.821223 10.2539 0.821223 9.11099 1.53136Z" stroke="#A6A6A6" stroke-width="2" stroke-linecap="round" stroke-linejoin="round"/>
<path d="M4.43313 12.083L4.42255 16.7739C4.42255 18.0441 5.45964 19.4044 6.72954 19.8045L10.1054 20.8647C10.6874 21.0447 11.6504 21.0447 12.2431 20.8647L15.6189 19.8045C16.8888 19.4044 17.9259 18.0441 17.9259 16.7739V12.133" stroke="#A6A6A6" stroke-width="2" stroke-linecap="round" stroke-linejoin="round"/>
<path d="M21.1221 14.0036V8.00244" stroke="#A6A6A6" stroke-width="2" stroke-linecap="round" stroke-linejoin="round"/>
</svg>
