<svg width="21" height="20" viewBox="0 0 21 20" fill="none" xmlns="http://www.w3.org/2000/svg">
<path d="M9.38149 0.420158C9.99759 -0.140053 10.9613 -0.140053 11.5774 0.420158L19.3182 7.45885C19.7971 7.89436 20.0685 8.5003 20.0685 9.13419V17.6944C20.0685 18.9677 18.9952 20 17.6712 20H14.4749C13.1509 20 12.0776 18.9677 12.0776 17.6944V13.8518C12.0776 13.4274 11.7199 13.0833 11.2785 13.0833H9.68037C9.23905 13.0833 8.88128 13.4274 8.88128 13.8518V17.6944C8.88128 18.9677 7.80799 20 6.48402 20H3.28767C1.9637 20 0.890411 18.9677 0.890411 17.6944V9.13419C0.890411 8.5003 1.16178 7.89436 1.64072 7.45885L9.38149 0.420158ZM10.4795 1.53706L2.73868 8.57575C2.57904 8.72091 2.48858 8.92289 2.48858 9.13419V17.6944C2.48858 18.1188 2.84635 18.4629 3.28767 18.4629H6.48402C6.92534 18.4629 7.28311 18.1188 7.28311 17.6944V13.8518C7.28311 12.5785 8.35639 11.5462 9.68037 11.5462H11.2785C12.6025 11.5462 13.6758 12.5785 13.6758 13.8518V17.6944C13.6758 18.1188 14.0336 18.4629 14.4749 18.4629H17.6712C18.1125 18.4629 18.4703 18.1188 18.4703 17.6944V9.13419C18.4703 8.92289 18.3799 8.72091 18.2202 8.57575L10.4795 1.53706Z" fill="black"/>
</svg>
