<svg width="23" height="20" viewBox="0 0 23 20" fill="none" xmlns="http://www.w3.org/2000/svg">
<path d="M3.44606 8.57143C4.71321 8.57143 5.74344 7.29018 5.74344 5.71429C5.74344 4.13839 4.71321 2.85714 3.44606 2.85714C2.17892 2.85714 1.14869 4.13839 1.14869 5.71429C1.14869 7.29018 2.17892 8.57143 3.44606 8.57143ZM19.5277 8.57143C20.7948 8.57143 21.8251 7.29018 21.8251 5.71429C21.8251 4.13839 20.7948 2.85714 19.5277 2.85714C18.2605 2.85714 17.2303 4.13839 17.2303 5.71429C17.2303 7.29018 18.2605 8.57143 19.5277 8.57143ZM20.6764 10H18.379C17.7472 10 17.1765 10.317 16.7601 10.8304C18.2067 11.817 19.2333 13.5982 19.4559 15.7143H21.8251C22.4604 15.7143 22.9737 15.0759 22.9737 14.2857V12.8571C22.9737 11.2812 21.9435 10 20.6764 10ZM11.4869 10C13.7089 10 15.5073 7.76339 15.5073 5C15.5073 2.23661 13.7089 0 11.4869 0C9.26488 0 7.46647 2.23661 7.46647 5C7.46647 7.76339 9.26488 10 11.4869 10ZM14.2437 11.4286H13.9458C13.1991 11.875 12.3699 12.1429 11.4869 12.1429C10.6038 12.1429 9.7782 11.875 9.02796 11.4286H8.73002C6.44701 11.4286 4.59475 13.7321 4.59475 16.5714V17.8571C4.59475 19.0402 5.36652 20 6.31778 20H16.656C17.6072 20 18.379 19.0402 18.379 17.8571V16.5714C18.379 13.7321 16.5267 11.4286 14.2437 11.4286ZM6.21368 10.8304C5.79728 10.317 5.22653 10 4.59475 10H2.29737C1.03023 10 0 11.2812 0 12.8571V14.2857C0 15.0759 0.51332 15.7143 1.14869 15.7143H3.51427C3.74041 13.5982 4.76705 11.817 6.21368 10.8304Z" fill="#A6A6A6"/>
</svg>
