<svg width="24" height="20" viewBox="0 0 24 20" fill="none" xmlns="http://www.w3.org/2000/svg">
<path d="M3.50086 8.57143C4.768 8.57143 5.79823 7.29018 5.79823 5.71429C5.79823 4.13839 4.768 2.85714 3.50086 2.85714C2.23371 2.85714 1.20348 4.13839 1.20348 5.71429C1.20348 7.29018 2.23371 8.57143 3.50086 8.57143ZM19.5825 8.57143C20.8496 8.57143 21.8799 7.29018 21.8799 5.71429C21.8799 4.13839 20.8496 2.85714 19.5825 2.85714C18.3153 2.85714 17.2851 4.13839 17.2851 5.71429C17.2851 7.29018 18.3153 8.57143 19.5825 8.57143ZM20.7312 10H18.4338C17.802 10 17.2313 10.317 16.8149 10.8304C18.2615 11.817 19.2881 13.5982 19.5107 15.7143H21.8799C22.5152 15.7143 23.0285 15.0759 23.0285 14.2857V12.8571C23.0285 11.2812 21.9983 10 20.7312 10ZM11.5417 10C13.7637 10 15.5621 7.76339 15.5621 5C15.5621 2.23661 13.7637 0 11.5417 0C9.31967 0 7.52126 2.23661 7.52126 5C7.52126 7.76339 9.31967 10 11.5417 10ZM14.2985 11.4286H14.0006C13.2539 11.875 12.4247 12.1429 11.5417 12.1429C10.6586 12.1429 9.83299 11.875 9.08276 11.4286H8.78482C6.5018 11.4286 4.64954 13.7321 4.64954 16.5714V17.8571C4.64954 19.0402 5.42132 20 6.37257 20H16.7108C17.662 20 18.4338 19.0402 18.4338 17.8571V16.5714C18.4338 13.7321 16.5815 11.4286 14.2985 11.4286ZM6.26847 10.8304C5.85208 10.317 5.28132 10 4.64954 10H2.35217C1.08502 10 0.0547943 11.2812 0.0547943 12.8571V14.2857C0.0547943 15.0759 0.568114 15.7143 1.20348 15.7143H3.56906C3.79521 13.5982 4.82185 11.817 6.26847 10.8304Z" fill="black"/>
</svg>
