<svg width="20" height="20" viewBox="0 0 20 20" fill="none" xmlns="http://www.w3.org/2000/svg">
<path d="M3.88889 3.33337H0.555556C0.25 3.33337 0 3.58337 0 3.88893V16.1112C0 16.4167 0.25 16.6667 0.555556 16.6667H3.88889C4.19444 16.6667 4.44444 16.4167 4.44444 16.1112V3.88893C4.44444 3.58337 4.19444 3.33337 3.88889 3.33337ZM3.33333 6.66671H1.11111V5.5556H3.33333V6.66671Z" fill="black"/>
<path d="M9.44444 3.33337H6.11111C5.80556 3.33337 5.55556 3.58337 5.55556 3.88893V16.1112C5.55556 16.4167 5.80556 16.6667 6.11111 16.6667H9.44444C9.75 16.6667 10 16.4167 10 16.1112V3.88893C10 3.58337 9.75 3.33337 9.44444 3.33337ZM8.88889 6.66671H6.66667V5.5556H8.88889V6.66671Z" fill="black"/>
<path d="M13.2822 4.19224L10.3056 5.69224C10.0322 5.83002 9.92222 6.16558 10.0589 6.4378L15.0589 16.36C15.1967 16.6334 15.5322 16.7434 15.8044 16.6067L18.7811 15.1067C19.0544 14.9689 19.1644 14.6334 19.0278 14.3611L14.0278 4.43891C13.89 4.16558 13.5544 4.05558 13.2822 4.19224Z" fill="black"/>
<path d="M16.1111 16.1111C16.1111 16.4178 15.8622 16.6667 15.5556 16.6667C15.2489 16.6667 15 16.4178 15 16.1111C15 15.8044 15.2489 15.5555 15.5556 15.5555C15.8622 15.5555 16.1111 15.8044 16.1111 16.1111Z" fill="black"/>
</svg>
