<svg width="45" height="45" viewBox="0 0 45 45" fill="none" xmlns="http://www.w3.org/2000/svg">
<path d="M43.9913 26.237C35.0661 35.3626 21.8928 30.0393 18.8891 26.237C17.6733 30.321 16.7007 38.8692 23.3946 42.925C30.6893 46.164 45.0211 47.023 43.9913 26.237Z" fill="black"/>
<path d="M26.1838 25.8145C29.6881 21.5193 34.5941 10.6053 26.1838 1.3107C46.5659 -7.56142 55.5769 31.7292 26.1838 25.8145Z" fill="black"/>
<path d="M18.8891 19.0548C15.0272 23.2796 9.62061 34.1374 18.8891 43.7699C-1.70754 52.2195 -10.504 14.1963 18.8891 19.0548Z" fill="black"/>
<path d="M25.3256 19.0548C15.5422 9.42228 3.22707 15.2525 1.08158 19.0548C-1.40171 3.468 8.76958 -1.10767 16.3146 0.677028C24.4143 2.59294 29.8798 11.7274 25.3256 19.0548Z" fill="black"/>
</svg>
