<svg width="20" height="20" viewBox="0 0 20 20" fill="none" xmlns="http://www.w3.org/2000/svg">
<path d="M9.0625 10C9.0625 10.2486 9.16127 10.4871 9.33709 10.6629C9.5129 10.8387 9.75136 10.9375 10 10.9375C10.2486 10.9375 10.4871 10.8387 10.6629 10.6629C10.8387 10.4871 10.9375 10.2486 10.9375 10C10.9375 9.75136 10.8387 9.5129 10.6629 9.33709C10.4871 9.16127 10.2486 9.0625 10 9.0625C9.75136 9.0625 9.5129 9.16127 9.33709 9.33709C9.16127 9.5129 9.0625 9.75136 9.0625 10ZM12.9688 10C12.9688 10.2486 13.0675 10.4871 13.2433 10.6629C13.4192 10.8387 13.6576 10.9375 13.9062 10.9375C14.1549 10.9375 14.3933 10.8387 14.5692 10.6629C14.745 10.4871 14.8438 10.2486 14.8438 10C14.8438 9.75136 14.745 9.5129 14.5692 9.33709C14.3933 9.16127 14.1549 9.0625 13.9062 9.0625C13.6576 9.0625 13.4192 9.16127 13.2433 9.33709C13.0675 9.5129 12.9688 9.75136 12.9688 10ZM5.15625 10C5.15625 10.2486 5.25502 10.4871 5.43084 10.6629C5.60665 10.8387 5.84511 10.9375 6.09375 10.9375C6.34239 10.9375 6.58085 10.8387 6.75666 10.6629C6.93248 10.4871 7.03125 10.2486 7.03125 10C7.03125 9.75136 6.93248 9.5129 6.75666 9.33709C6.58085 9.16127 6.34239 9.0625 6.09375 9.0625C5.84511 9.0625 5.60665 9.16127 5.43084 9.33709C5.25502 9.5129 5.15625 9.75136 5.15625 10ZM18.0703 6.60938C17.6289 5.56055 16.9961 4.61914 16.1895 3.81055C15.3885 3.00663 14.4376 2.36762 13.3906 1.92969C12.3164 1.47852 11.1758 1.25 10 1.25H9.96094C8.77734 1.25586 7.63086 1.49023 6.55273 1.95117C5.51476 2.3936 4.57278 3.03374 3.7793 3.83594C2.98047 4.64258 2.35352 5.58008 1.91992 6.625C1.4707 7.70703 1.24414 8.85742 1.25 10.041C1.25663 11.3974 1.57752 12.7338 2.1875 13.9453V16.9141C2.1875 17.1523 2.28216 17.3809 2.45065 17.5494C2.61914 17.7178 2.84766 17.8125 3.08594 17.8125H6.05664C7.26815 18.4225 8.60455 18.7434 9.96094 18.75H10.002C11.1719 18.75 12.3066 18.5234 13.375 18.0801C14.4167 17.6474 15.364 17.0158 16.1641 16.2207C16.9707 15.4219 17.6055 14.4883 18.0488 13.4473C18.5098 12.3691 18.7441 11.2227 18.75 10.0391C18.7559 8.84961 18.5254 7.69531 18.0703 6.60938ZM15.1191 15.1641C13.75 16.5195 11.9336 17.2656 10 17.2656H9.9668C8.78906 17.2598 7.61914 16.9668 6.58594 16.416L6.42188 16.3281H3.67188V13.5781L3.58398 13.4141C3.0332 12.3809 2.74023 11.2109 2.73438 10.0332C2.72656 8.08594 3.4707 6.25781 4.83594 4.88086C6.19922 3.50391 8.02148 2.74219 9.96875 2.73438H10.002C10.9785 2.73438 11.9258 2.92383 12.8184 3.29883C13.6895 3.66406 14.4707 4.18945 15.1426 4.86133C15.8125 5.53125 16.3398 6.31445 16.7051 7.18555C17.084 8.08789 17.2734 9.04492 17.2695 10.0332C17.2578 11.9785 16.4941 13.8008 15.1191 15.1641Z" fill="black"/>
</svg>
