<svg width="23" height="22" viewBox="0 0 23 22" fill="none" xmlns="http://www.w3.org/2000/svg">
<path d="M9.49291 1.53136L3.36408 5.4621C1.39919 6.72234 1.39919 9.54283 3.36408 10.8031L9.49291 14.7338C10.5924 15.444 12.4046 15.444 13.5042 14.7338L19.6025 10.8031C21.5572 9.54283 21.5572 6.73234 19.6025 5.4721L13.5042 1.54136C12.4046 0.821223 10.5924 0.821223 9.49291 1.53136Z" stroke="#A6A6A6" stroke-width="2" stroke-linecap="round" stroke-linejoin="round"/>
<path d="M4.99273 12.0832L4.98255 16.7741C4.98255 18.0443 5.98027 19.4046 7.20197 19.8046L10.4496 20.8648C11.0096 21.0449 11.936 21.0449 12.5062 20.8648L15.7539 19.8046C16.9755 19.4046 17.9733 18.0443 17.9733 16.7741V12.1332" stroke="#A6A6A6" stroke-width="2" stroke-linecap="round" stroke-linejoin="round"/>
<path d="M21.0482 14.0037V8.00253" stroke="#A6A6A6" stroke-width="2" stroke-linecap="round" stroke-linejoin="round"/>
</svg>
