<svg width="30" height="30" viewBox="0 0 30 30" fill="none" xmlns="http://www.w3.org/2000/svg">
<path d="M29.3275 17.4913C23.3774 23.5751 14.5952 20.0262 12.5927 17.4913C11.7822 20.214 11.1338 25.9128 15.5964 28.6167C20.4595 30.776 30.0141 31.3487 29.3275 17.4913Z" fill="#D9D9D9"/>
<path d="M17.4558 17.2097C19.792 14.3462 23.0627 7.07017 17.4558 0.873801C31.0439 -5.04095 37.0513 21.1528 17.4558 17.2097Z" fill="#D9D9D9"/>
<path d="M12.5927 12.7032C10.0182 15.5197 6.41374 22.7582 12.5927 29.1799C-1.13836 34.813 -7.00268 9.4642 12.5927 12.7032Z" fill="#D9D9D9"/>
<path d="M16.8837 12.7032C10.3615 6.28152 2.15138 10.1684 0.72105 12.7032C-0.934472 2.312 5.84638 -0.738448 10.8764 0.451352C16.2762 1.72863 19.9199 7.81826 16.8837 12.7032Z" fill="#D9D9D9"/>
</svg>
